<svg width="9" height="10" viewBox="0 0 9 10" fill="none" xmlns="http://www.w3.org/2000/svg">
<path d="M1.20011 0.995962C1.09776 0.995962 0.9953 1.03495 0.9173 1.11315L0.1173 1.91315C-0.0391 2.06955 -0.0391 2.32277 0.1173 2.47877L3.03449 5.39596L0.1173 8.31315C-0.0391 8.46955 -0.0391 8.72278 0.1173 8.87878L0.9173 9.67878C1.0737 9.83518 1.32693 9.83518 1.48293 9.67878L4.40011 6.76159L7.3173 9.67878C7.4733 9.83518 7.72693 9.83518 7.88293 9.67878L8.68293 8.87878C8.83933 8.72238 8.83933 8.46915 8.68293 8.31315L5.76574 5.39596L8.68293 2.47877C8.83933 2.32277 8.83933 2.06915 8.68293 1.91315L7.88293 1.11315C7.72653 0.95675 7.4733 0.95675 7.3173 1.11315L4.40011 4.03034L1.48293 1.11315C1.40473 1.03495 1.30246 0.995962 1.20011 0.995962Z" fill="#F6F930"/>
</svg>
