<svg width="46" height="66" viewBox="0 0 46 66" fill="none" xmlns="http://www.w3.org/2000/svg">
<path d="M22.9719 65.9958L4.18634 60.7751L0 13.7701H46.0001L41.8093 60.7681L22.9719 65.9958Z" fill="#4353AD"/>
<path d="M38.2216 57.7753L41.8025 17.6135H22.9999V61.9998L38.2216 57.7753Z" fill="#485FB5"/>
<path d="M23 50.0194L22.9747 50.0259L16.5613 48.2923L16.1513 43.6945H10.3704L11.1771 52.7464L22.9735 56.0247L23 56.0174V50.0194ZM8.55991 23.3786L9.08337 29.1434H23V23.3786H8.55991ZM9.59704 35.0468L10.1131 40.8119H23V35.0468H9.59704Z" fill="#EDEDED"/>
<path d="M27.5654 0.995914H34.5403V3.5349H30.4824V4.04294H34.5403V9.88257H27.5654V7.21637H31.6236V6.70873H27.5656V0.995914H27.5654ZM19.1956 0.995914H26.1703V3.5349H22.1124V4.04294H26.1703V9.88257H19.1958V7.21637H23.2538V6.70873H19.1955V0.995914H19.1956ZM10.8259 0.995914H17.8005V3.91573H13.7427V6.83594H17.8009V9.75576H10.8259V0.995914Z" fill="#100F0D"/>
<path d="M36.3662 35.047L37.4057 23.3788H22.9802V29.1436H31.0947L30.5708 35.047H22.9802V40.8121H30.0715L29.4026 48.289L22.98 50.0242V56.022L34.7856 52.7465L34.872 51.7727L36.2257 36.5951L36.3662 35.047Z" fill="#AEAEAE"/>
</svg>
