<svg width="21" height="20" viewBox="0 0 21 20" fill="none" xmlns="http://www.w3.org/2000/svg">
<path d="M10.5 0.496704C4.975 0.496704 0.5 4.85838 0.5 10.2378C0.5 14.5424 3.365 18.1929 7.3375 19.4799C7.8375 19.5716 8.02083 19.2701 8.02083 19.0115C8.02083 18.7802 8.0125 18.1673 8.00833 17.3552C5.22667 17.9426 4.64 16.0484 4.64 16.0484C4.185 14.9241 3.5275 14.6234 3.5275 14.6234C2.62167 14.0195 3.5975 14.0319 3.5975 14.0319C4.60167 14.0997 5.12917 15.0356 5.12917 15.0356C6.02083 16.525 7.47 16.0946 8.04167 15.846C8.13167 15.2157 8.38917 14.787 8.675 14.5433C6.45417 14.2996 4.12 13.4619 4.12 9.72974C4.12 8.66658 4.5075 7.79755 5.14917 7.11604C5.03667 6.86987 4.69917 5.87941 5.23667 4.53786C5.23667 4.53786 6.07417 4.27682 7.98667 5.53659C8.78667 5.32015 9.63667 5.21276 10.4867 5.20781C11.3367 5.21276 12.1867 5.32015 12.9867 5.53659C14.8867 4.27682 15.7242 4.53786 15.7242 4.53786C16.2617 5.87941 15.9242 6.86987 15.8242 7.11604C16.4617 7.79755 16.8492 8.66658 16.8492 9.72974C16.8492 13.4719 14.5117 14.2955 12.2867 14.535C12.6367 14.8274 12.9617 15.4247 12.9617 16.3375C12.9617 17.6411 12.9492 18.6885 12.9492 19.0049C12.9492 19.2602 13.1242 19.565 13.6367 19.4675C17.6375 18.1887 20.5 14.5358 20.5 10.2378C20.5 4.85838 16.0225 0.496704 10.5 0.496704Z" fill="#132C33"/>
</svg>
