<svg width="30" height="31" viewBox="0 0 30 31" fill="none" xmlns="http://www.w3.org/2000/svg">
<path d="M6.01336e-05 10.3677L6.06254e-05 21.6177C6.08517e-05 26.7946 4.19819 30.9927 9.37506 30.9927L20.6251 30.9927C25.8019 30.9927 30.0001 26.7945 30.0001 21.6177L30.0001 10.3677C30.0001 5.1908 25.8019 0.992677 20.6251 0.992677L9.37506 0.992677C4.19818 0.992678 5.99073e-05 5.1908 6.01336e-05 10.3677ZM20.6251 3.80518C24.2438 3.80518 27.1876 6.74893 27.1876 10.3677L27.1876 21.6177C27.1876 25.2364 24.2438 28.1802 20.6251 28.1802L9.37506 28.1802C5.75631 28.1802 2.81256 25.2364 2.81256 21.6177L2.81256 10.3677C2.81256 6.74893 5.75631 3.80518 9.37506 3.80518L20.6251 3.80518Z" fill="#132C33"/>
<path d="M7.50006 15.9927C7.50006 20.1346 10.8582 23.4927 15.0001 23.4927C19.1419 23.4927 22.5001 20.1346 22.5001 15.9927C22.5001 11.8508 19.1419 8.49268 15.0001 8.49268C10.8582 8.49268 7.50006 11.8508 7.50006 15.9927ZM19.6876 15.9927C19.6876 18.5764 17.5838 20.6802 15.0001 20.6802C12.4144 20.6802 10.3126 18.5764 10.3126 15.9927C10.3126 13.4089 12.4144 11.3052 15.0001 11.3052C17.5838 11.3052 19.6876 13.4089 19.6876 15.9927Z" fill="#132C33"/>
<path d="M7.93691 7.92982C7.93691 7.37789 7.48948 6.93045 6.93754 6.93045C6.3856 6.93045 5.93817 7.37789 5.93817 7.92982C5.93817 8.48176 6.3856 8.9292 6.93754 8.9292C7.48948 8.9292 7.93691 8.48176 7.93691 7.92982Z" fill="#132C33"/>
</svg>
