<svg width="20" height="21" viewBox="0 0 20 21" fill="none" xmlns="http://www.w3.org/2000/svg">
<path d="M13.75 0.997192H6.25C2.79875 0.997192 0 3.79594 0 7.24719V14.7472C0 18.1984 2.79875 20.9972 6.25 20.9972H13.75C17.2013 20.9972 20 18.1984 20 14.7472V7.24719C20 3.79594 17.2013 0.997192 13.75 0.997192ZM18.125 14.7472C18.125 17.1597 16.1625 19.1222 13.75 19.1222H6.25C3.8375 19.1222 1.875 17.1597 1.875 14.7472V7.24719C1.875 4.83469 3.8375 2.87219 6.25 2.87219H13.75C16.1625 2.87219 18.125 4.83469 18.125 7.24719V14.7472Z" fill="#132C33"/>
<path d="M10 5.99719C7.23875 5.99719 5 8.23594 5 10.9972C5 13.7584 7.23875 15.9972 10 15.9972C12.7613 15.9972 15 13.7584 15 10.9972C15 8.23594 12.7613 5.99719 10 5.99719ZM10 14.1222C8.2775 14.1222 6.875 12.7197 6.875 10.9972C6.875 9.27344 8.2775 7.87219 10 7.87219C11.7225 7.87219 13.125 9.27344 13.125 10.9972C13.125 12.7197 11.7225 14.1222 10 14.1222Z" fill="#132C33"/>
<path d="M15.375 6.28843C15.7429 6.28843 16.0412 5.99014 16.0412 5.62218C16.0412 5.25422 15.7429 4.95593 15.375 4.95593C15.007 4.95593 14.7087 5.25422 14.7087 5.62218C14.7087 5.99014 15.007 6.28843 15.375 6.28843Z" fill="#132C33"/>
</svg>
