<svg width="162" height="38" viewBox="0 0 162 38" fill="none" xmlns="http://www.w3.org/2000/svg">
<path fill-rule="evenodd" clip-rule="evenodd" d="M154.373 3.70239L161.139 3.73957C161.139 3.73957 148.56 20.7847 147.533 22.1739C147.199 22.6237 146.692 23.1089 146.435 23.7102C145.786 25.2221 145.119 28.5383 145.119 28.5383L138.928 28.569C138.928 28.569 139.891 25.1124 139.852 23.2712C139.817 21.6627 138.996 20.0563 138.535 18.4431C138.07 16.8104 137.438 13.6151 137.438 13.6151H143.802L144.68 17.1264L154.373 3.70239Z" fill="#1A1918"/>
<path fill-rule="evenodd" clip-rule="evenodd" d="M141.561 7.29698C142.81 8.04982 143.576 12.2019 143.576 12.2019C143.576 12.2019 137.043 12.2982 133.487 12.2982H130.415L126.684 28.5381H120.979C120.979 28.5381 124.529 10.8895 125.368 7.68982C125.64 6.65412 127.229 6.83165 129.912 6.83165H134.198C136.966 6.83165 140.201 6.47846 141.561 7.29698Z" fill="#1A1918"/>
<path fill-rule="evenodd" clip-rule="evenodd" d="M114.998 15.2064C114.998 15.2064 115.176 14.1639 114.395 12.9569C113.728 11.9277 113.111 11.6885 111.356 11.6337C106.398 11.4778 106.494 15.1516 106.494 15.1516L114.998 15.2064ZM120.375 10.9995C121.102 13.6199 119.717 19.7776 119.717 19.7776C119.717 19.7776 112.485 19.6568 108.525 19.7776C107.293 19.8151 105.819 19.6438 105.452 20.2166C104.936 21.0197 105.64 22.2555 106.238 22.7775C106.925 23.3789 108.263 23.447 108.744 23.5084C111.959 23.9167 118.688 23.6137 118.688 23.6137L117.522 28.7751C117.522 28.7751 108.013 29.2516 103.257 28.1168C102.318 27.8931 101.438 27.4411 100.843 26.8001C100.681 26.6247 100.54 26.3856 100.387 26.1792C100.264 26.0144 99.9065 25.4725 99.7461 25.0444C98.6599 22.1498 99.8734 16.6042 101.063 13.6329C101.201 13.2884 101.374 12.8518 101.557 12.4807C101.785 12.0178 101.978 11.4955 102.16 11.2188C102.283 11.028 102.435 10.905 102.562 10.725C102.709 10.5122 102.88 10.3058 103.038 10.1218C103.477 9.61246 103.975 9.25247 104.574 8.8051C106.556 7.32142 110.142 6.16924 114.45 6.61041C116.071 6.77709 118.521 7.35643 119.717 9.02445C120.037 9.46995 120.195 10.3541 120.375 10.9995Z" fill="#1A1918"/>
<path fill-rule="evenodd" clip-rule="evenodd" d="M94.2048 6.81189L99.7373 6.77905C99.7373 6.77905 96.6541 21.4058 95.0828 28.5382H88.7183C84.2701 28.5382 80.3089 29.0891 78.6235 25.9045C76.9886 22.8126 78.5488 17.7277 79.2818 14.2733C79.7998 11.8286 80.8907 6.83172 80.8907 6.83172L86.6228 6.77905C86.6228 6.77905 85.0031 14.5587 84.3293 18.4431C84.0879 19.8344 83.5901 21.1446 84.1099 22.1738C84.6037 23.1528 85.2949 23.2228 87.4016 23.2711C88.069 23.2866 90.2547 23.2711 90.2547 23.2711L94.2048 6.81189Z" fill="#1A1918"/>
<path fill-rule="evenodd" clip-rule="evenodd" d="M68.3091 17.3457C68.8884 15.2873 69.7332 13.0555 69.6257 11.2009C69.5096 9.21724 67.8462 7.41105 66.773 7.03153C63.5405 5.89019 60.5142 7.48571 59.3116 8.78691C57.7554 10.4726 57.2287 12.4411 56.6779 15.1513C56.2677 17.1635 55.9318 19.2879 56.6779 20.8571C57.9989 23.6311 62.1181 23.0255 66.5534 23.0518C67.2117 21.2874 67.756 19.3056 68.3091 17.3457ZM75.9902 9.22591C76.6222 13.8213 74.1973 18.8932 72.5271 23.304C74.2301 23.4576 75.7225 23.2801 75.83 23.4071C75.9418 23.572 74.6887 28.672 74.2518 28.6851C72.9001 28.7204 68.4212 28.7576 66.5534 28.7576C60.4591 28.7576 54.7577 29.1547 51.8501 26.1242C50.6694 24.893 49.8531 22.7816 49.6554 21.2961C49.3261 18.8161 49.7388 16.086 50.3138 13.8346C50.8339 11.8023 51.501 9.88426 52.5085 8.12857C55.0693 3.65832 59.5244 0.340262 66.9924 1.10611C68.4407 1.25544 70.5211 1.88962 71.8204 2.64215C71.9103 2.69512 72.2244 2.94514 72.2966 2.98913C74.0523 4.10631 75.6522 6.77253 75.9902 9.22591Z" fill="#1A1918"/>
<path fill-rule="evenodd" clip-rule="evenodd" d="M49.0256 6.83835C48.6569 8.5172 48.2882 10.4201 47.8997 12.0791H41.7549C42.2311 10.2401 42.5955 8.41187 43.0716 6.81201C45.038 6.81201 46.8662 6.83835 49.0256 6.83835Z" fill="#1A1918"/>
<path fill-rule="evenodd" clip-rule="evenodd" d="M41.5356 13.6152H47.4607C46.6862 17.9036 45.1523 24.8207 43.9496 29.6355C43.1968 32.6487 42.6943 34.8477 40.6576 36.4386C40.4754 36.5814 40.3704 36.5136 40.2189 36.6583C39.8434 37.0161 38.1075 37.4309 37.1465 37.5359C35.5838 37.7051 33.8173 37.5579 31.8971 37.5186C32.3996 35.6817 32.9681 33.4762 33.4158 31.8302C38.0967 32.3965 38.2154 27.9721 39.1215 23.7104C39.6461 21.248 41.2351 14.6029 41.5356 13.6152Z" fill="#1A1918"/>
<path fill-rule="evenodd" clip-rule="evenodd" d="M27.7097 24.8075L27.5827 25.1365C25.4187 29.3499 21.5848 31.9352 16.116 32.0493C13.5595 32.1019 11.1235 31.4461 9.53227 30.7326C6.09803 29.1897 3.20967 26.3283 1.63212 23.2711C-0.630726 18.8885 -1.03875 12.7921 3.66633 8.23853C3.73883 8.23853 3.09566 9.22589 3.16816 9.22589L3.03866 9.64723C-0.351897 20.2622 10.094 29.3589 20.2483 28.3185C22.6886 28.0685 25.8007 26.732 27.7097 24.8075Z" fill="#21609B"/>
<path fill-rule="evenodd" clip-rule="evenodd" d="M21.565 20.4182C24.1196 20.4358 26.788 19.2418 28.3681 17.5654C26.9857 21.0747 22.983 23.3304 17.6149 22.6129C13.1205 22.0115 8.8389 17.4886 8.39774 12.9567C8.07522 9.65848 9.22493 7.68995 11.1191 5.30225C10.4608 6.55109 10.2148 7.51429 10.1534 8.12864C9.43374 15.2632 15.8527 20.381 21.565 20.4182Z" fill="#21609B"/>
<path fill-rule="evenodd" clip-rule="evenodd" d="M28.1116 11.5566C27.7144 12.4674 25.4277 14.1878 24.418 14.4028C20.4196 15.2545 17.8587 13.3584 16.5176 11.2009C16.318 10.8784 15.9494 9.99855 15.8834 9.77456C15.3632 8.00586 15.6024 5.33065 17.1542 3.9458C16.6867 5.26249 16.6186 6.79202 16.8645 7.7862C17.0136 8.38754 17.4677 9.43687 17.9222 10.0971C18.7494 11.2998 19.2739 11.5919 20.3363 12.2304C20.8146 12.5179 21.328 12.7484 21.5498 12.8119C22.557 13.1081 24.6835 13.8895 28.1116 11.5566Z" fill="#21609B"/>
</svg>
