<svg width="160" height="46" viewBox="0 0 160 46" fill="none" xmlns="http://www.w3.org/2000/svg">
<path fill-rule="evenodd" clip-rule="evenodd" d="M148.973 19.5691C148.829 19.5976 148.685 19.9106 148.685 20.0811C148.656 21.2188 148.627 24.2339 148.627 26.2817C148.627 26.3386 148.713 26.4523 148.8 26.4523C149.232 26.4808 150.271 26.5092 151.165 26.5092C152.405 26.5092 153.126 26.3386 153.529 26.1681C154.567 25.6561 155.058 24.5466 155.058 23.3235C155.058 20.5647 153.097 19.5122 150.184 19.5122C149.982 19.484 149.406 19.484 148.973 19.5691ZM156.413 32.2832C156.413 29.4674 154.308 27.9029 150.501 27.9029C150.328 27.9029 149.117 27.8744 148.829 27.9314C148.742 27.9598 148.627 28.0168 148.627 28.1022C148.627 30.1215 148.598 33.3357 148.685 34.587C148.742 35.1275 149.146 35.8955 149.636 36.123C150.155 36.4075 151.338 36.4642 152.145 36.4642C154.423 36.4642 156.413 35.2129 156.413 32.2832ZM143.09 18.0049C143.378 18.0049 144.243 18.09 146.464 18.09C148.569 18.09 150.242 18.0334 152.289 18.0334C154.798 18.0334 158.259 18.915 158.259 22.6125C158.259 24.433 156.961 25.8836 155.259 26.5947C155.173 26.6231 155.173 26.6798 155.259 26.7083C157.682 27.3057 159.816 28.7848 159.816 31.5721C159.816 34.3028 158.086 36.0376 155.577 37.1186C154.048 37.7727 152.145 38.0002 150.213 38.0002C148.742 38.0002 144.791 37.8296 142.6 37.8866C142.369 37.8012 142.802 36.7771 143.003 36.6066C143.523 36.5781 143.926 36.5496 144.474 36.379C145.253 36.18 145.339 35.9524 145.455 34.7863C145.512 33.7908 145.512 30.2636 145.512 27.7608C145.512 24.3191 145.541 21.9868 145.512 20.8492C145.484 19.9675 145.166 19.683 144.532 19.5122C144.042 19.427 143.234 19.3131 142.571 19.228C142.427 19.0856 142.917 18.1185 143.09 18.0049ZM126.45 35.6964C127.143 36.2367 128.498 36.4642 129.709 36.4642C131.266 36.4642 132.824 36.18 134.323 34.843C135.852 33.4778 136.919 31.3731 136.919 28.0168C136.919 24.8026 135.679 22.1859 133.141 20.6501C131.699 19.7682 129.853 19.3985 127.719 19.3985C127.085 19.3985 126.479 19.427 126.104 19.5976C126.018 19.6546 125.816 19.9106 125.816 20.0527C125.758 20.6216 125.758 25.0017 125.758 27.5617C125.758 30.2069 125.758 33.9044 125.816 34.331C125.816 34.7578 126.018 35.412 126.45 35.6964ZM119.904 18.0049C120.452 18.0049 122.557 18.09 123.567 18.09C125.383 18.09 126.681 18.0049 130.113 18.0049C132.997 18.0049 135.419 18.7729 137.149 20.2232C139.254 22.0153 140.35 24.4899 140.35 27.5048C140.35 31.7997 138.36 34.2743 136.371 35.6964C134.381 37.147 131.785 38.0002 128.094 38.0002C126.133 38.0002 122.759 37.9433 119.962 37.9148H119.933C119.789 37.6591 120.164 36.6635 120.394 36.635C121.144 36.5496 121.346 36.5211 121.721 36.379C122.326 36.1515 122.442 35.8385 122.529 34.7863C122.615 32.8237 122.586 30.4629 122.586 27.7893C122.586 25.8836 122.615 22.1574 122.557 20.9628C122.471 19.9675 122.038 19.7115 121.173 19.5407C120.74 19.4555 120.164 19.3416 119.356 19.2564C119.241 19.0571 119.76 18.1755 119.904 18.0049Z" fill="#8E714E"/>
<path fill-rule="evenodd" clip-rule="evenodd" d="M85.0103 36.8056C84.2894 36.7202 83.7703 36.6065 83.1357 36.322C83.0493 36.2651 82.905 35.9809 82.905 35.867C82.8472 34.8714 82.8472 32.0272 82.8472 30.1215C82.8472 28.5854 82.5879 27.2487 81.9245 26.3101C81.1458 25.2292 80.0212 24.6035 78.5793 24.6035C77.3104 24.6035 75.6089 25.457 74.1959 26.6516C74.167 26.6798 73.9363 26.8791 73.9652 26.5661C73.9652 26.2532 74.0229 25.6275 74.0518 25.201C74.0807 24.8026 73.85 24.6035 73.85 24.6035C72.927 25.0586 70.3316 25.656 69.38 25.7412C68.6879 25.8835 68.515 26.5377 69.2359 26.7652H69.2648C70.0432 26.9927 70.5623 27.2487 70.966 27.5047C71.2544 27.7323 71.2255 28.0452 71.2255 28.3012C71.2544 30.4344 71.2544 33.7053 71.168 35.4973C71.1392 36.2084 70.9373 36.4642 70.4182 36.5781L70.4757 36.5496C70.0721 36.635 69.7548 36.7202 69.2645 36.7771C69.0915 36.9477 69.0915 37.8581 69.2645 38.0571C69.5818 38.0571 71.2544 37.9717 72.6388 37.9717C74.5421 37.9717 75.5226 38.0571 76.0128 38.0571C76.2146 37.8296 76.2724 36.9762 76.1569 36.7771C75.6089 36.7486 75.2053 36.692 74.8305 36.5781C74.3114 36.4642 74.167 36.2084 74.1382 35.611C74.0807 34.1034 74.0807 30.918 74.0807 28.7563C74.0807 28.1589 74.2536 27.8744 74.4266 27.7038C75.0898 27.1351 76.1569 26.7367 77.1085 26.7367C78.0313 26.7367 78.637 27.0212 79.0984 27.3911C79.7328 27.9029 79.9346 28.6424 80.0212 29.1829C80.1653 30.406 80.1078 32.8237 80.1078 34.9284C80.1078 36.066 80.0212 36.3505 79.5887 36.4926C79.3869 36.5781 78.8677 36.692 78.262 36.7486C78.0602 36.9477 78.1179 37.8296 78.262 38.0287C79.0984 38.0287 80.0789 37.9432 81.5208 37.9432C83.3086 37.9432 84.4623 38.0287 84.9237 38.0287C85.0678 37.8581 85.1255 37.0331 85.0101 36.8056H85.0103ZM92.9985 25.9405C91.47 25.9405 90.5183 27.1066 90.5183 28.9269C90.5183 30.7756 91.3545 32.9088 93.7194 32.9088C94.123 32.9088 94.8729 32.7382 95.2188 32.3401C95.7668 31.8281 96.1418 30.8041 96.1418 29.7234C96.1418 27.3626 94.9592 25.9405 92.9985 25.9405ZM92.7964 38.5122C92.2198 38.5122 91.8159 38.6828 91.5566 38.8252C90.3451 39.5929 89.7974 40.3325 89.7974 41.2144C89.7974 42.0391 90.1144 42.6932 90.8068 43.2622C91.6429 43.9732 92.7964 44.3147 94.2671 44.3147C97.2086 44.3147 98.5064 42.7501 98.5064 41.2144C98.5064 40.1334 97.9585 39.4223 96.8339 39.0242C96.0263 38.6828 94.5556 38.5122 92.7964 38.5122ZM92.9985 45.9074C91.2393 45.9074 89.9703 45.5375 88.8746 44.7128C87.8075 43.9163 87.3461 42.7217 87.3461 41.897C87.3461 41.6694 87.4039 41.0435 87.923 40.4748C88.24 40.1334 88.9321 39.4793 90.5761 38.3701C90.6335 38.3416 90.6624 38.3131 90.6624 38.2562C90.6624 38.1992 90.6047 38.1423 90.5472 38.1141C89.1917 37.6021 88.788 36.7771 88.6725 36.322V36.2651C88.6439 36.0945 88.5862 35.9239 88.8457 35.7531C89.0476 35.611 89.336 35.4404 89.653 35.2413C90.1433 34.9569 90.6624 34.6439 90.9797 34.3879C91.0375 34.3309 91.0374 34.2743 91.0374 34.2173C91.0374 34.1604 90.9797 34.1034 90.922 34.0752C88.9035 33.4208 87.8941 31.9417 87.8941 29.7234C87.8941 28.2728 88.5573 26.9643 89.7396 26.1396C90.5472 25.5136 92.5657 24.7459 93.8924 24.7459H93.979C95.3342 24.7741 96.0841 25.0586 97.1509 25.4285C97.7278 25.6275 98.2758 25.7127 99.0256 25.7127C100.15 25.7127 100.64 25.3715 101.044 24.9734C101.073 25.0301 101.131 25.1725 101.16 25.5421C101.188 25.912 101.073 26.4522 100.784 26.8506C100.554 27.1633 100.035 27.3911 99.5158 27.3911H99.3715C98.8524 27.3342 98.6217 27.2772 98.6217 27.2772L98.5064 27.3342C98.4776 27.3911 98.5064 27.4478 98.5353 27.5332L98.5642 27.5902C98.6217 27.8462 98.7371 28.6139 98.7371 28.8132C98.7371 31.1455 97.7855 32.1693 96.7761 32.9373C95.7956 33.6484 94.671 34.1034 93.4021 34.2173C93.3732 34.2173 93.258 34.2173 92.9985 34.2458C92.8541 34.2458 92.6523 34.2743 92.6234 34.2743H92.5946C92.3639 34.3309 91.7873 34.6154 91.7873 35.099C91.7873 35.5256 92.0468 36.0376 93.2866 36.123C93.5462 36.1515 93.8057 36.1515 94.0942 36.1799C95.7379 36.2936 97.7855 36.4359 98.7371 36.7486C100.064 37.2322 100.9 38.3983 100.9 39.7922C100.9 41.897 99.3715 43.8596 96.8339 45.0824C95.5938 45.6229 94.3537 45.9074 92.9985 45.9074ZM109.436 26.0826C108.83 26.0826 108.282 26.2247 107.879 26.5092C106.754 27.1918 106.177 28.5572 106.177 30.5481C106.177 34.2743 108.081 36.891 110.791 36.891C111.599 36.891 112.233 36.6635 112.781 36.2084C113.617 35.5256 114.05 34.1604 114.05 32.2547C114.05 28.5572 112.176 26.0826 109.436 26.0826ZM109.955 38.2562C105.053 38.2562 103.294 34.7009 103.294 31.373C103.294 29.0408 104.245 27.2487 106.148 25.9687C107.504 25.144 109.119 24.6889 110.561 24.6889C114.309 24.6889 116.934 27.3342 116.934 31.1455C116.934 33.7338 115.896 35.7816 113.906 37.0331C112.954 37.6588 111.311 38.2562 109.955 38.2562H109.955ZM58.5658 26.0826C57.9601 26.0826 57.4124 26.2247 57.0084 26.5092C55.8839 27.1918 55.307 28.5572 55.307 30.5481C55.307 34.2743 57.2103 36.891 59.9211 36.891C60.7286 36.891 61.363 36.6635 61.911 36.2084C62.7471 35.5256 63.1799 34.1604 63.1799 32.2547C63.1799 28.5572 61.3341 26.0826 58.5658 26.0826ZM59.0849 38.2562C54.1824 38.2562 52.4232 34.7009 52.4232 31.373C52.4232 29.0408 53.3749 27.2487 55.2781 25.9687C56.6337 25.144 58.2485 24.6889 59.6904 24.6889C63.4395 24.6889 66.0637 27.3342 66.0637 31.1455C66.0637 33.7338 65.0254 35.7816 63.0356 37.0331C62.1128 37.6588 60.4691 38.2562 59.0849 38.2562ZM26.1231 37.9717C26.0653 37.8866 26.0076 37.6306 26.0364 37.3176C26.0364 37.0901 26.0942 36.9477 26.1231 36.891C26.7285 36.8056 27.0458 36.7202 27.3917 36.635C27.9686 36.4926 28.1993 36.1799 28.2281 35.4689C28.3148 33.7623 28.3148 30.5196 28.2859 28.2728V28.2158C28.2859 27.9598 28.2859 27.6468 27.9686 27.4193C27.5072 27.1351 26.9592 26.8791 26.2383 26.6798C25.9787 26.5946 25.8058 26.4522 25.8346 26.2817C25.8346 26.1111 26.0076 25.912 26.3826 25.8551C27.3343 25.7696 29.8141 25.1725 30.7946 24.7459C30.8524 24.8026 30.939 24.9734 30.939 25.201L30.9101 25.5136C30.8812 25.8266 30.8524 26.1965 30.8524 26.5661C30.8524 26.6798 30.9678 26.7652 31.0831 26.7652C31.1408 26.7652 31.1985 26.7367 31.2563 26.7082C33.1018 25.2861 34.7744 24.7741 35.6394 24.7741C37.0527 24.7741 38.1484 25.4285 38.9848 26.7937C39.0423 26.8791 39.1 26.9073 39.1867 26.9073C39.2444 26.9073 39.3307 26.8791 39.3596 26.8221C41.0611 25.5421 42.7625 24.7741 43.8871 24.7741C46.5691 24.7741 48.1553 26.7367 48.1553 30.0645C48.1553 31.0031 48.1553 32.2262 48.1264 33.3357C48.1264 34.3309 48.0976 35.2413 48.0976 35.8955C48.0976 36.0376 48.2994 36.4926 48.6167 36.5781C49.0203 36.7771 49.5683 36.8625 50.2893 36.9762H50.3181C50.3759 37.1752 50.2604 37.9148 50.1452 38.0571C49.972 38.0571 49.7124 38.0571 49.4242 38.0287C48.8762 38.0002 48.0976 37.9717 47.2325 37.9717C45.4445 37.9717 44.5217 38.0002 43.6275 38.0571C43.5701 37.8296 43.5412 37.147 43.6275 36.9762C44.1467 36.891 44.4062 36.8056 44.7235 36.7202C45.3004 36.5496 45.4445 36.2936 45.4733 35.554C45.4733 35.0138 45.5885 30.406 45.4156 29.2965C45.2426 28.1589 44.3774 26.8221 42.4741 26.8221C41.7531 26.8221 40.6285 27.1066 39.5326 27.9313C39.4751 27.9883 39.4174 28.1304 39.4174 28.2158V28.2443C39.5326 28.8415 39.5326 29.5243 39.5326 30.5765V32.4253C39.5326 33.7053 39.5037 34.8999 39.5326 35.81C39.5326 36.4359 39.9076 36.5781 40.2249 36.692C40.3979 36.7202 40.5131 36.7486 40.6574 36.7771C40.917 36.8341 41.1765 36.891 41.5802 36.9762C41.6379 37.0901 41.6379 37.4597 41.5513 37.7727C41.5224 37.9432 41.4647 38.0287 41.4361 38.0571C40.4556 38.0287 39.4462 38.0002 37.9755 38.0002C37.543 38.0002 36.7931 38.0287 36.1585 38.0287C35.6394 38.0287 35.1492 38.0571 34.861 38.0571C34.8321 38.0002 34.7744 37.8011 34.7744 37.4882C34.7744 37.2322 34.8321 37.0331 34.8899 36.9762C35.0339 36.9477 35.1492 36.9195 35.2935 36.9195C35.6394 36.8625 35.9278 36.8056 36.2163 36.7486C36.7065 36.6065 36.8795 36.3505 36.9083 35.7249C36.995 34.3027 37.0813 30.2354 36.8795 29.2114C36.5336 27.5617 35.5819 26.7367 34.0534 26.7367C33.1595 26.7367 32.0347 27.1633 31.1119 27.8462C30.9678 27.9598 30.8524 28.2443 30.8524 28.5003V30.1784C30.8524 32.2262 30.8524 34.7863 30.8812 35.8955C30.9101 36.2366 31.0253 36.635 31.6888 36.7771C31.8329 36.8056 32.0636 36.8625 32.352 36.891L32.8711 36.9762C32.9289 37.147 32.9 37.8296 32.7845 38.0571C32.4961 38.0571 32.1502 38.0287 31.7463 38.0287C31.1408 38.0002 30.3621 37.9717 29.4971 37.9717C28.4877 37.9717 27.7668 38.0002 27.1899 38.0287C26.7863 37.9717 26.469 37.9717 26.1231 37.9717Z" fill="#442D22"/>
<path fill-rule="evenodd" clip-rule="evenodd" d="M10.9541 44.7982L9.77175 44.3998C9.77175 44.3998 9.9161 38.4553 7.75327 38.0287C6.31138 36.379 7.98396 -31.941 13.1746 37.8012C13.1746 37.8012 11.3869 38.6828 11.0696 40.1904C10.7234 41.6695 10.9541 44.7982 10.9541 44.7982Z" fill="#AEAEAE"/>
<path fill-rule="evenodd" clip-rule="evenodd" d="M10.9541 44.7982L9.77175 44.3998C9.77175 44.3998 9.9161 38.4553 7.75327 38.0287C6.31138 36.379 7.98396 -31.941 13.1746 37.8012C13.1746 37.8012 11.3869 38.6828 11.0696 40.1904C10.7234 41.6695 10.9541 44.7982 10.9541 44.7982Z" fill="#A6A385"/>
<path fill-rule="evenodd" clip-rule="evenodd" d="M11.5887 39.0525C11.5887 39.0525 21.9415 32.34 19.5191 18.3743C17.1833 8.2203 11.6751 4.89249 11.0696 3.61246C10.4064 2.70234 9.77179 1.10962 9.77179 1.10962L10.2046 29.3533C10.2046 29.3818 9.31041 38 11.5887 39.0525Z" fill="#AEAEAE"/>
<path fill-rule="evenodd" clip-rule="evenodd" d="M11.5887 39.0525C11.5887 39.0525 21.9415 32.34 19.5191 18.3743C17.1833 8.2203 11.6751 4.89249 11.0696 3.61246C10.4064 2.70234 9.77179 1.10962 9.77179 1.10962L10.2046 29.3533C10.2046 29.3818 9.31041 38 11.5887 39.0525Z" fill="#499D4A"/>
<path fill-rule="evenodd" clip-rule="evenodd" d="M9.16628 39.4223C9.16628 39.4223 -0.552162 32.8803 0.0247011 21.3611C0.572424 9.84163 7.43596 4.18155 8.76237 3.15753C9.62767 2.2474 9.65654 1.90597 9.71428 0.99585C10.3197 2.27588 10.2045 20.138 10.2909 22.2427C10.5504 30.349 9.82949 37.8865 9.16628 39.4223Z" fill="#AEAEAE"/>
<path fill-rule="evenodd" clip-rule="evenodd" d="M9.16628 39.4223C9.16628 39.4223 -0.552162 32.8803 0.0247011 21.3611C0.572424 9.84163 7.43596 4.18155 8.76237 3.15753C9.62767 2.2474 9.65654 1.90597 9.71428 0.99585C10.3197 2.27588 10.2045 20.138 10.2909 22.2427C10.5504 30.349 9.82949 37.8865 9.16628 39.4223Z" fill="#58AA50"/>
</svg>
