<svg width="104" height="66" viewBox="0 0 104 66" fill="none" xmlns="http://www.w3.org/2000/svg">
<path d="M51.3662 65.8084C51.014 65.8084 50.6853 65.7127 50.3801 65.5452L47.2578 63.6551C46.7883 63.3919 47.023 63.2962 47.1639 63.2484C47.7978 63.0331 47.9151 62.9852 48.5725 62.6024C48.6429 62.5546 48.7368 62.5785 48.8072 62.6263L51.2018 64.0858C51.2957 64.1336 51.4131 64.1336 51.4835 64.0858L60.8506 58.5591C60.9445 58.5113 60.9914 58.4156 60.9914 58.2959V47.2666C60.9914 47.1469 60.9445 47.0512 60.8506 47.0034L51.4835 41.5007C51.3896 41.4528 51.2722 41.4528 51.2018 41.5007L41.8348 47.0034C41.7409 47.0512 41.6939 47.1709 41.6939 47.2666V58.2959C41.6939 58.3916 41.7409 58.5113 41.8348 58.5591L44.3937 60.0664C45.7788 60.7841 46.6474 59.9468 46.6474 59.1094V48.2236C46.6474 48.08 46.7648 47.9365 46.9291 47.9365H48.1264C48.2673 47.9365 48.4081 48.0561 48.4081 48.2236V59.1094C48.4081 60.9995 47.3987 62.1 45.6379 62.1C45.098 62.1 44.6754 62.1 43.4781 61.5019L41.0131 60.0664C40.4027 59.7075 40.0271 59.0376 40.0271 58.3199V47.2905C40.0271 46.5727 40.4027 45.9029 41.0131 45.544L50.3801 40.0173C50.9671 39.6824 51.7652 39.6824 52.3522 40.0173L61.7192 45.544C62.3296 45.9029 62.7052 46.5727 62.7052 47.2905V58.3199C62.7052 59.0376 62.3296 59.7075 61.7192 60.0664L52.3522 65.593C52.047 65.7366 51.6948 65.8084 51.3662 65.8084ZM54.2537 58.2242C50.1454 58.2242 49.3002 56.3102 49.3002 54.6833C49.3002 54.5397 49.4176 54.3962 49.582 54.3962H50.8027C50.9436 54.3962 51.061 54.4919 51.061 54.6354C51.2488 55.9035 51.7887 56.5255 54.2772 56.5255C56.2492 56.5255 57.0944 56.0709 57.0944 54.9943C57.0944 54.3723 56.8596 53.9177 53.7842 53.6067C51.2253 53.3435 49.6289 52.7693 49.6289 50.6878C49.6289 48.7499 51.2253 47.6015 53.9016 47.6015C56.9066 47.6015 58.3856 48.6542 58.5734 50.951C58.5734 51.0228 58.5499 51.0945 58.5029 51.1663C58.456 51.2142 58.3856 51.262 58.3151 51.262H57.0944C56.977 51.262 56.8596 51.1663 56.8361 51.0467C56.5544 49.7308 55.8266 49.3002 53.9016 49.3002C51.7418 49.3002 51.4835 50.0658 51.4835 50.64C51.4835 51.3338 51.7887 51.5491 54.6998 51.9319C57.5874 52.3147 58.949 52.865 58.949 54.9225C58.9255 57.0279 57.2352 58.2242 54.2537 58.2242Z" fill="#539E43"/>
<path d="M22.3025 22.6719C22.3025 22.2412 22.0677 21.8345 21.6921 21.6192L11.7381 15.7815C11.5738 15.6858 11.386 15.6379 11.1982 15.614H11.1043C10.9165 15.614 10.7287 15.6858 10.5643 15.7815L0.610384 21.6192C0.234763 21.8345 0 22.2412 0 22.6719L0.0234763 38.3666C0.0234763 38.5819 0.140858 38.7972 0.328668 38.8929C0.516479 39.0126 0.751242 39.0126 0.915576 38.8929L6.8316 35.4478C7.20722 35.2324 7.44199 34.8257 7.44199 34.3951V27.0501C7.44199 26.6195 7.67675 26.2127 8.05237 25.9974L10.5643 24.5141C10.7521 24.3944 10.9634 24.3466 11.1747 24.3466C11.386 24.3466 11.5973 24.3944 11.7616 24.5141L14.2736 25.9974C14.6492 26.2127 14.884 26.6195 14.884 27.0501V34.3951C14.884 34.8257 15.1187 35.2324 15.4944 35.4478L21.4104 38.8929C21.5982 39.0126 21.833 39.0126 22.0208 38.8929C22.2086 38.7972 22.326 38.5819 22.326 38.3666L22.3025 22.6719Z" fill="#333333"/>
<path d="M70.1472 1.06762C69.9594 0.971925 69.7246 0.971925 69.5603 1.06762C69.3725 1.18725 69.2551 1.37865 69.2551 1.59397V17.1452C69.2551 17.2887 69.1847 17.4322 69.0438 17.528C68.9029 17.5997 68.7621 17.5997 68.6212 17.528L66.1327 16.0685C65.7571 15.8532 65.3111 15.8532 64.9355 16.0685L54.9815 21.9301C54.6059 22.1455 54.3711 22.5522 54.3711 22.9828V34.6821C54.3711 35.1127 54.6059 35.5195 54.9815 35.7348L64.9355 41.5964C65.3111 41.8117 65.7571 41.8117 66.1327 41.5964L76.0867 35.7348C76.4623 35.5195 76.6971 35.1127 76.6971 34.6821V5.51765C76.6971 5.06308 76.4623 4.65636 76.0867 4.44103L70.1472 1.06762ZM69.2316 30.8302C69.2316 30.9498 69.1847 31.0455 69.0908 31.0934L65.6867 33.1031C65.5928 33.1509 65.4754 33.1509 65.3815 33.1031L61.9774 31.0934C61.8835 31.0455 61.8366 30.9259 61.8366 30.8302V26.8108C61.8366 26.6912 61.8835 26.5955 61.9774 26.5476L65.3815 24.5379C65.4754 24.4901 65.5928 24.4901 65.6867 24.5379L69.0908 26.5476C69.1847 26.5955 69.2316 26.7151 69.2316 26.8108V30.8302Z" fill="#333333"/>
<path d="M103.272 26.715C103.648 26.4997 103.859 26.093 103.859 25.6624V22.8153C103.859 22.3846 103.624 21.9779 103.272 21.7626L93.3887 15.9249C93.0131 15.7096 92.5671 15.7096 92.1914 15.9249L82.2375 21.7865C81.8619 22.0018 81.6271 22.4086 81.6271 22.8392V34.5385C81.6271 34.9691 81.8619 35.3759 82.2375 35.5912L92.121 41.3332C92.4966 41.5485 92.9427 41.5485 93.2948 41.3332L99.2813 37.9358C99.4691 37.8401 99.5865 37.6248 99.5865 37.4095C99.5865 37.1942 99.4691 36.9788 99.2813 36.8831L89.2804 31.0215C89.0926 30.9019 88.9752 30.7105 88.9752 30.4952V26.8347C88.9752 26.6193 89.0926 26.404 89.2804 26.3083L92.4027 24.49C92.5905 24.3704 92.8253 24.3704 93.0131 24.49L96.1354 26.3083C96.3233 26.4279 96.4406 26.6193 96.4406 26.8347V29.7057C96.4406 29.921 96.558 30.1363 96.7458 30.232C96.9336 30.3516 97.1684 30.3516 97.3562 30.232L103.272 26.715Z" fill="#333333"/>
<path d="M92.6375 26.1648C92.7079 26.1169 92.8018 26.1169 92.8723 26.1648L94.7738 27.2893C94.8443 27.3371 94.8912 27.4089 94.8912 27.5046V29.7535C94.8912 29.8492 94.8443 29.921 94.7738 29.9689L92.8723 31.0933C92.8018 31.1412 92.7079 31.1412 92.6375 31.0933L90.7359 29.9689C90.6655 29.921 90.6185 29.8492 90.6185 29.7535V27.5046C90.6185 27.4089 90.6655 27.3371 90.7359 27.2893L92.6375 26.1648Z" fill="#539E43"/>
<mask id="mask0_15_1923" style="mask-type:alpha" maskUnits="userSpaceOnUse" x="27" y="15" width="23" height="27">
<path d="M38.9472 15.9728C38.5715 15.7574 38.1255 15.7574 37.7499 15.9728L27.8664 21.7865C27.4907 22.0018 27.2794 22.4086 27.2794 22.8392V34.4906C27.2794 34.9213 27.5142 35.328 27.8664 35.5433L37.7499 41.3571C38.1255 41.5724 38.5715 41.5724 38.9472 41.3571L48.8307 35.5433C49.2063 35.328 49.4176 34.9213 49.4176 34.4906V22.8392C49.4176 22.4086 49.1828 22.0018 48.8307 21.7865L38.9472 15.9728Z" fill="white"/>
</mask>
<g mask="url(#mask0_15_1923)">
<path d="M38.9472 15.9728C38.5715 15.7574 38.1255 15.7574 37.7499 15.9728L27.8664 21.7865C27.4907 22.0018 27.2794 22.4086 27.2794 22.8392V34.4906C27.2794 34.9213 27.5142 35.328 27.8664 35.5433L37.7499 41.3571C38.1255 41.5724 38.5715 41.5724 38.9472 41.3571L48.8307 35.5433C49.2063 35.328 49.4176 34.9213 49.4176 34.4906V22.8392C49.4176 22.4086 49.1828 22.0018 48.8307 21.7865L38.9472 15.9728Z" fill="url(#paint0_linear_15_1923)"/>
<path d="M48.8542 21.7859L38.9237 15.9722C38.8298 15.9243 38.7124 15.8765 38.6185 15.8525L27.4908 35.2795C27.5847 35.3992 27.702 35.4949 27.8194 35.5666L37.7499 41.3804C38.0316 41.5479 38.3603 41.5957 38.6655 41.5L49.1124 22.0252C49.042 21.9295 48.9481 21.8577 48.8542 21.7859Z" fill="url(#paint1_linear_15_1923)"/>
<path fill-rule="evenodd" clip-rule="evenodd" d="M48.8777 35.5435C49.1594 35.376 49.3707 35.0889 49.4646 34.7779L38.5716 15.8294C38.2898 15.7815 37.9846 15.8055 37.7264 15.9729L27.8664 21.7628L38.5011 41.5247C38.642 41.5008 38.8063 41.4529 38.9472 41.3812L48.8777 35.5435Z" fill="url(#paint2_linear_15_1923)"/>
<path fill-rule="evenodd" clip-rule="evenodd" d="M48.8776 35.5434L38.9706 41.3572C38.8298 41.4289 38.6889 41.4768 38.5246 41.5007L38.7124 41.8596L49.6993 35.376V35.2324L49.4176 34.7539C49.3706 35.0889 49.1594 35.376 48.8776 35.5434Z" fill="url(#paint3_linear_15_1923)"/>
<path fill-rule="evenodd" clip-rule="evenodd" d="M48.8776 35.5434L38.9706 41.3572C38.8298 41.4289 38.6889 41.4768 38.5246 41.5007L38.7124 41.8596L49.6993 35.376V35.2324L49.4176 34.7539C49.3706 35.0889 49.1594 35.376 48.8776 35.5434Z" fill="url(#paint4_linear_15_1923)"/>
</g>
<defs>
<linearGradient id="paint0_linear_15_1923" x1="42.3751" y1="20.3067" x2="31.2472" y2="37.4634" gradientUnits="userSpaceOnUse">
<stop stop-color="#41873F"/>
<stop offset="0.3288" stop-color="#418B3D"/>
<stop offset="0.6352" stop-color="#419637"/>
<stop offset="0.9319" stop-color="#3FA92D"/>
<stop offset="1" stop-color="#3FAE2A"/>
</linearGradient>
<linearGradient id="paint1_linear_15_1923" x1="36.8479" y1="30.0288" x2="64.2108" y2="15.4414" gradientUnits="userSpaceOnUse">
<stop offset="0.1376" stop-color="#41873F"/>
<stop offset="0.4032" stop-color="#54A044"/>
<stop offset="0.7136" stop-color="#66B848"/>
<stop offset="0.9081" stop-color="#6CC04A"/>
</linearGradient>
<linearGradient id="paint2_linear_15_1923" x1="26.9185" y1="28.6654" x2="49.7884" y2="28.6654" gradientUnits="userSpaceOnUse">
<stop offset="0.0919165" stop-color="#6CC04A"/>
<stop offset="0.2864" stop-color="#66B848"/>
<stop offset="0.5968" stop-color="#54A044"/>
<stop offset="0.8624" stop-color="#41873F"/>
</linearGradient>
<linearGradient id="paint3_linear_15_1923" x1="26.9185" y1="38.3263" x2="49.7884" y2="38.3263" gradientUnits="userSpaceOnUse">
<stop offset="0.0919165" stop-color="#6CC04A"/>
<stop offset="0.2864" stop-color="#66B848"/>
<stop offset="0.5968" stop-color="#54A044"/>
<stop offset="0.8624" stop-color="#41873F"/>
</linearGradient>
<linearGradient id="paint4_linear_15_1923" x1="53.1202" y1="19.756" x2="47.111" y2="50.6538" gradientUnits="userSpaceOnUse">
<stop stop-color="#41873F"/>
<stop offset="0.3288" stop-color="#418B3D"/>
<stop offset="0.6352" stop-color="#419637"/>
<stop offset="0.9319" stop-color="#3FA92D"/>
<stop offset="1" stop-color="#3FAE2A"/>
</linearGradient>
</defs>
</svg>
