<svg width="72" height="65" viewBox="0 0 72 65" fill="none" xmlns="http://www.w3.org/2000/svg">
<path d="M0.212097 32.4253C0.212097 37.8554 5.48904 42.9247 13.8086 45.782C12.1473 54.1861 13.5108 60.9598 18.0654 63.5992C22.747 66.312 29.7215 64.4342 36.3412 58.6198C42.7938 64.1995 49.3154 66.3953 53.8657 63.7484C58.5428 61.0277 59.9654 53.7946 58.2581 45.1282C66.9234 42.2494 71.7705 37.9269 71.7705 32.4253C71.7705 27.121 66.4837 22.5321 58.2764 19.6931C60.1144 10.6685 58.557 4.05915 53.8139 1.31073C49.2411 -1.33892 42.6438 0.970521 36.0962 6.69627C29.2846 0.61884 22.7524 -1.23667 18.0139 1.51976C13.4455 4.17694 12.1419 11.0737 13.8086 19.6334C5.76996 22.4497 0.212097 27.1422 0.212097 32.4253Z" fill="#AEAEAE"/>
<path d="M56.5381 22.5124C55.8789 22.2844 55.1958 22.0687 54.4924 21.8646C54.608 21.3905 54.7141 20.9226 54.8084 20.4626C56.357 12.9092 55.3445 6.82412 51.887 4.82066C48.5718 2.89961 43.1499 4.90262 37.674 9.6911C37.1475 10.1516 36.6194 10.6391 36.0916 11.15C35.7399 10.812 35.3888 10.4853 35.0386 10.1728C29.2998 5.05265 23.5474 2.89495 20.0934 4.90421C16.7813 6.83083 15.8004 12.5514 17.1944 19.7098C17.329 20.4012 17.4863 21.1073 17.6643 21.8252C16.8501 22.0574 16.0642 22.305 15.3122 22.5683C8.584 24.9254 4.28708 28.6195 4.28708 32.4513C4.28708 36.4088 8.89983 40.3782 15.9078 42.785C16.4608 42.975 17.0346 43.1546 17.626 43.3251C17.4341 44.1015 17.2671 44.8624 17.1269 45.6045C15.7978 52.6387 16.8358 58.224 20.1391 60.1385C23.5511 62.1156 29.2774 60.0834 34.8533 55.1858C35.294 54.7986 35.7363 54.3881 36.1794 53.9577C36.7537 54.5135 37.3271 55.0394 37.8974 55.5327C43.2984 60.2028 48.6327 62.0887 51.933 60.1689C55.3416 58.1861 56.4493 52.186 55.0112 44.886C54.9013 44.3285 54.7735 43.7589 54.6299 43.1792C55.0321 43.0598 55.4269 42.9364 55.8118 42.8082C63.0972 40.3827 67.8373 36.4616 67.8373 32.4513C67.8373 28.6057 63.4018 24.8866 56.5381 22.5124Z" fill="#53C1DE"/>
<path d="M54.958 40.2188C54.6105 40.3344 54.2539 40.4461 53.8906 40.5544C53.0863 37.9959 52.0009 35.2754 50.6725 32.4645C51.9401 29.7207 52.9836 27.0349 53.7654 24.493C54.4155 24.682 55.0465 24.8814 55.6545 25.0918C61.5353 27.126 65.1225 30.1337 65.1225 32.4512C65.1225 34.9198 61.2484 38.1244 54.958 40.2188ZM52.3479 45.4158C52.9838 48.6437 53.0747 51.5622 52.6534 53.8437C52.2749 55.8937 51.5138 57.2606 50.5726 57.808C48.5699 58.9728 44.2869 57.4587 39.668 53.4647C39.1385 53.0069 38.6051 52.518 38.0701 52.0006C39.8607 50.0327 41.6504 47.745 43.397 45.2042C46.4692 44.9303 49.3717 44.4825 52.0039 43.871C52.1335 44.3965 52.2487 44.9119 52.3479 45.4158ZM25.9528 57.6067C23.9961 58.3011 22.4376 58.321 21.4956 57.7751C19.491 56.6134 18.6577 52.1288 19.7944 46.1132C19.9246 45.4243 20.0796 44.7166 20.2582 43.9932C22.8615 44.5717 25.7427 44.9879 28.8223 45.2388C30.5807 47.725 32.4221 50.0102 34.2777 52.0112C33.8722 52.4045 33.4684 52.7789 33.0668 53.1317C30.6012 55.2973 28.1303 56.8339 25.9528 57.6067ZM16.7858 40.2036C13.687 39.1394 11.1279 37.7562 9.3738 36.2468C7.79761 34.8905 7.00182 33.5439 7.00182 32.4512C7.00182 30.126 10.4518 27.1601 16.2058 25.1443C16.904 24.8997 17.6349 24.6692 18.3933 24.4526C19.1885 27.0519 20.2317 29.7695 21.4906 32.5176C20.2154 35.3065 19.1574 38.0674 18.3544 40.6972C17.8137 40.541 17.2898 40.3766 16.7858 40.2036ZM19.8587 19.1858C18.6643 13.0527 19.4575 8.42607 21.4535 7.2651C23.5796 6.02831 28.2809 7.79171 33.2359 12.2127C33.5527 12.4953 33.8707 12.791 34.1895 13.097C32.3431 15.0892 30.5186 17.3573 28.7758 19.8288C25.787 20.1072 22.926 20.5544 20.2955 21.1532C20.1301 20.4847 19.9836 19.8279 19.8587 19.1858ZM47.2714 25.9874C46.6425 24.896 45.997 23.8304 45.3388 22.7939C47.3665 23.0515 49.3092 23.3934 51.1336 23.8118C50.5858 25.5756 49.9032 27.4198 49.0996 29.3104C48.5231 28.2107 47.9134 27.1019 47.2714 25.9874ZM36.0925 15.0466C37.3447 16.4098 38.5988 17.9318 39.8322 19.5831C38.5893 19.5241 37.3309 19.4934 36.0622 19.4934C34.8055 19.4934 33.5564 19.5234 32.3212 19.5814C33.5558 17.9454 34.8207 16.4255 36.0925 15.0466ZM24.8421 26.0063C24.2139 27.1008 23.6155 28.2036 23.0481 29.3084C22.2576 27.4244 21.5812 25.5718 21.0287 23.7829C22.8419 23.3752 24.7755 23.0418 26.7902 22.7891C26.1228 23.8352 25.4719 24.9086 24.8421 26.0061V26.0063ZM26.8482 42.3079C24.7666 42.0746 22.804 41.7584 20.9913 41.3619C21.5526 39.5411 22.2439 37.6489 23.0512 35.7243C23.6201 36.8284 24.2208 37.9316 24.8528 39.0285H24.8529C25.4967 40.1459 26.1637 41.2405 26.8482 42.3079ZM36.1676 50.0482C34.8809 48.6532 33.5975 47.1101 32.344 45.4502C33.5608 45.4982 34.8014 45.5227 36.0622 45.5227C37.3575 45.5227 38.638 45.4934 39.8984 45.437C38.6609 47.1268 37.4114 48.6723 36.1676 50.0482ZM49.1255 35.6262C49.9749 37.5716 50.6909 39.4539 51.2595 41.2437C49.4169 41.6661 47.4275 42.0063 45.3314 42.2591C45.9911 41.2086 46.6423 40.1246 47.2822 39.0097C47.9296 37.8817 48.5443 36.752 49.1255 35.6262ZM44.9306 37.6469C43.9372 39.3776 42.9173 41.0299 41.8819 42.5895C39.9961 42.725 38.0479 42.7948 36.0622 42.7948C34.0846 42.7948 32.1609 42.733 30.3084 42.6122C29.2313 41.0322 28.1893 39.375 27.2022 37.6618H27.2024C26.218 35.9531 25.3119 34.2301 24.4909 32.5167C25.3116 30.7993 26.2153 29.0744 27.1942 27.3688L27.1939 27.3692C28.1754 25.6591 29.2082 24.01 30.2754 22.4398C32.1654 22.2963 34.1035 22.2214 36.0621 22.2214H36.0622C38.0297 22.2214 39.9702 22.2969 41.8597 22.4417C42.9105 24.0003 43.9364 25.6441 44.9217 27.3544C45.9181 29.0839 46.8335 30.7974 47.6613 32.4779C46.836 34.1874 45.9226 35.9181 44.9306 37.6469ZM50.531 7.18394C52.6591 8.41709 53.4867 13.3904 52.1496 19.9119C52.0643 20.3281 51.9683 20.7519 51.864 21.1815C49.2274 20.5702 46.3644 20.1153 43.3668 19.8327C41.6206 17.334 39.8111 15.0624 37.9947 13.0958C38.4831 12.6237 38.9707 12.1736 39.4563 11.7488C44.148 7.6461 48.5331 6.02626 50.531 7.18394Z" fill="#AEAEAE"/>
<path d="M36.0622 26.749C39.1963 26.749 41.737 29.3019 41.737 32.4513C41.737 35.6005 39.1963 38.1535 36.0622 38.1535C32.9281 38.1535 30.3874 35.6005 30.3874 32.4513C30.3874 29.3019 32.9281 26.749 36.0622 26.749Z" fill="#53C1DE"/>
</svg>
