<svg width="25" height="26" viewBox="0 0 25 26" fill="none" xmlns="http://www.w3.org/2000/svg">
<g clip-path="url(#clip0_11_10)">
<path d="M22.5 4.74512H11.25V5.57845H22.5V4.74512Z" fill="#132C33"/>
<path d="M18.3333 6.41174H11.25V7.24508H18.3333V6.41174Z" fill="#132C33"/>
<path d="M18.3333 8.07849H11.25V8.91183H18.3333V8.07849Z" fill="#132C33"/>
<path d="M22.5 3.07849H14.5833V3.91182H22.5V3.07849Z" fill="#132C33"/>
<path d="M13.75 3.07849H12.9167V3.91182H13.75V3.07849Z" fill="#132C33"/>
<path d="M12.9166 17.6617H12.0833V18.4951H12.9166V17.6617Z" fill="#132C33"/>
<path d="M6.96124 3.78973L6.37207 3.20056L5.53874 4.03389C5.37608 4.1966 5.37608 4.46035 5.53874 4.62306L6.37207 5.45639L6.96124 4.86723L6.42249 4.32848L6.96124 3.78973Z" fill="#132C33"/>
<path d="M10.2946 4.03389L9.46124 3.20056L8.87207 3.78973L9.41082 4.32848L8.87207 4.86723L9.46124 5.45639L10.2946 4.62306C10.4572 4.46035 10.4572 4.1966 10.2946 4.03389Z" fill="#132C33"/>
<path d="M7.93836 2.94621L7.10425 5.44617L7.89435 5.70979L8.72846 3.20983L7.93836 2.94621Z" fill="#132C33"/>
<path d="M21.6667 13.9118V10.5785H20.8334V13.9118H20V9.74512H19.1667V13.9118H18.3334V11.8285H17.5V13.9118H16.6667V11.4118H15.8334V13.9118H15V12.2451H14.1667V13.9118H13.3334V14.7451H22.5V13.9118H21.6667Z" fill="#132C33"/>
<path d="M22.0834 0.995117H2.91669C1.53653 0.996471 0.418041 2.11496 0.416687 3.49512V11.6726V11.6764V16.4118V17.6618C0.418041 19.0419 1.53653 20.1604 2.91669 20.1618H8.07585L6.40919 23.4951H4.16669C3.47632 23.4951 2.91669 24.0548 2.91669 24.7451C2.91669 25.4355 3.47632 25.9951 4.16669 25.9951H20.8334C21.5237 25.9951 22.0834 25.4355 22.0834 24.7451C22.0834 24.0548 21.5237 23.4951 20.8334 23.4951H18.5909L16.9242 20.1618H22.0834C23.4635 20.1604 24.582 19.0419 24.5834 17.6618V3.49512C24.582 2.11496 23.4635 0.996471 22.0834 0.995117ZM1.25002 6.85762L2.1971 7.98512C2.27627 8.07944 2.39315 8.13387 2.51627 8.13387H3.79169C3.91481 8.13387 4.03169 8.07944 4.11085 7.98512L5.05835 6.85762L5.99335 7.16137L6.09669 8.62928C6.10523 8.75204 6.16762 8.86475 6.2671 8.9372L7.29919 9.6872C7.39903 9.75928 7.52549 9.78381 7.64502 9.75428L9.07544 9.39887L9.65377 10.1943L8.87419 11.4443C8.8096 11.5491 8.79466 11.677 8.83335 11.7939L9.22794 13.0068C9.26591 13.1238 9.35356 13.218 9.46752 13.2643L10.8334 13.818V14.8014L9.46669 15.3551C9.35247 15.4012 9.26466 15.4957 9.2271 15.613L9.1021 15.9951H6.70169C7.63544 14.0401 6.80752 11.6983 4.85252 10.7645C3.70424 10.2161 2.36122 10.2587 1.25002 10.8789V6.85762ZM1.25002 11.8701C2.59773 10.8187 4.54262 11.0589 5.59398 12.4067C6.40575 13.4472 6.46841 14.888 5.75002 15.9951H1.25002V11.8701ZM20.8334 24.3284C21.0635 24.3284 21.25 24.515 21.25 24.7451C21.25 24.9752 21.0635 25.1618 20.8334 25.1618H4.16669C3.93658 25.1618 3.75002 24.9752 3.75002 24.7451C3.75002 24.515 3.93658 24.3284 4.16669 24.3284H20.8334ZM17.6592 23.4951H7.34085L9.00752 20.1618H15.9925L17.6592 23.4951ZM23.75 17.6618C23.75 18.5823 23.0038 19.3285 22.0834 19.3285H2.91669C1.99622 19.3285 1.25002 18.5823 1.25002 17.6618V16.8285H5.96752H5.97127H23.75V17.6618ZM23.75 15.9951H10.1063L11.4067 15.468C11.5638 15.4043 11.6666 15.2517 11.6667 15.0822V13.5368C11.6667 13.3671 11.5639 13.2143 11.4067 13.1505L9.95835 12.5647L9.68419 11.721L10.51 10.396C10.5996 10.252 10.593 10.0681 10.4934 9.93095L9.58502 8.68095C9.48528 8.54361 9.31226 8.48048 9.14752 8.52137L7.63252 8.89637L6.91669 8.37637L6.8071 6.8222C6.79518 6.65277 6.68158 6.50751 6.52002 6.45512L5.05127 5.97762C4.88966 5.92616 4.71299 5.97694 4.60335 6.10637L3.60044 7.30012H2.71169L1.70835 6.10637C1.59867 5.97678 1.42174 5.92595 1.26002 5.97762L1.25002 5.98137V3.49512C1.25002 2.57465 1.99622 1.82845 2.91669 1.82845H22.0834C23.0038 1.82845 23.75 2.57465 23.75 3.49512V15.9951Z" fill="#132C33"/>
</g>
<defs>
<clipPath id="clip0_11_10">
<rect width="25" height="25" fill="white" transform="translate(0 0.995117)"/>
</clipPath>
</defs>
</svg>
