<svg width="30" height="31" viewBox="0 0 30 31" fill="none" xmlns="http://www.w3.org/2000/svg">
<path d="M15 30.9932C23.2863 30.9932 30 24.2794 30 15.9932C30 7.70691 23.2863 0.993164 15 0.993164C6.71375 0.993164 0 7.70691 0 15.9932C0 24.2794 6.71375 30.9932 15 30.9932ZM6.86375 15.6682L21.3263 10.0919C21.9975 9.84941 22.5837 10.2557 22.3662 11.2707L22.3675 11.2694L19.905 22.8707C19.7225 23.6932 19.2338 23.8932 18.55 23.5057L14.8 20.7419L12.9912 22.4844C12.7912 22.6844 12.6225 22.8532 12.235 22.8532L12.5013 19.0369L19.4512 12.7582C19.7537 12.4919 19.3837 12.3419 18.985 12.6069L10.3963 18.0144L6.69375 16.8594C5.89 16.6044 5.8725 16.0557 6.86375 15.6682V15.6682Z" fill="#132C33"/>
</svg>
