<svg width="25" height="25" viewBox="0 0 25 25" fill="none" xmlns="http://www.w3.org/2000/svg">
<path d="M2.92969 15.9491L1.06509 15.5377C0.518603 16.6403 0 17.8788 0 19.3057C0 20.7052 0.497607 21.9287 1.06509 23.0736L7.37305 21.6821V24.4263L9.57031 23.3276L11.7676 24.4263V21.6835L18.0263 23.0744C18.5686 21.9804 19.0918 20.7386 19.0918 19.3057C19.0918 19.0587 19.0735 18.8128 19.0428 18.5732H25V0.995117H2.92969V15.9491ZM1.90088 21.3891C1.71035 20.8853 1.46484 20.0849 1.46484 19.3057C1.46484 18.5263 1.7104 17.7258 1.90088 17.2222L7.37305 18.4293V20.182L1.90088 21.3891ZM10.3027 22.0561L9.57031 21.6899L8.83789 22.0561V18.5732H10.3027V22.0561ZM17.1913 21.3882L11.7676 20.183V18.4283L17.1913 17.223C17.3817 17.727 17.627 18.5269 17.627 19.3056C17.627 20.0846 17.3817 20.8846 17.1913 21.3882V21.3882ZM23.5352 2.45996V17.1084H18.7038C18.4637 16.3739 18.2701 16.027 18.0263 15.537L10.9548 17.1084H8.18535L4.39453 16.2722V2.45996H23.5352Z" fill="#132C33"/>
<path d="M8.83789 3.9248H19.0918V5.38965H8.83789V3.9248Z" fill="#132C33"/>
<path d="M5.85938 9.78418H22.0703V11.249H5.85938V9.78418Z" fill="#132C33"/>
<path d="M8.83789 12.7139H19.0918V14.1787H8.83789V12.7139Z" fill="#132C33"/>
<path d="M10.3027 6.85449H11.7676V8.31934H10.3027V6.85449Z" fill="#132C33"/>
<path d="M13.2324 6.85449H14.6973V8.31934H13.2324V6.85449Z" fill="#132C33"/>
<path d="M16.1621 6.85449H17.627V8.31934H16.1621V6.85449Z" fill="#132C33"/>
</svg>
