<svg width="21" height="26" viewBox="0 0 21 26" fill="none" xmlns="http://www.w3.org/2000/svg">
<path d="M17.7169 17.3281L16.2497 16.8973L13.0575 14.8123V14.3345C13.9817 13.6374 14.6164 12.5718 14.7343 11.3504C15.1978 11.2758 15.553 10.873 15.553 10.3888V9.07511C15.553 9.07003 15.5524 9.06505 15.5522 9.05997V7.39581C15.7369 7.26359 15.854 7.04821 15.854 6.8066V5.28365L18.057 4.90841C18.4191 4.84674 18.6794 4.55919 18.705 4.19283C18.7305 3.82648 18.5126 3.50558 18.1626 3.3943L10.736 1.03209C10.5811 0.982776 10.4174 0.982825 10.2625 1.03204L2.83579 3.3943C2.48583 3.50558 2.26787 3.82648 2.2934 4.19279C2.30961 4.42555 2.42084 4.62623 2.59252 4.75768V6.74923H2.57436C2.15615 6.74923 1.81591 7.08947 1.81591 7.50768V8.49625L1.32631 11.3699C1.24169 11.8669 1.62451 12.3218 2.12988 12.3218H3.78754C4.29179 12.3218 4.67592 11.868 4.59111 11.3698L4.10151 8.49625V7.50768C4.10151 7.08947 3.76127 6.74923 3.34306 6.74923H3.32495V4.97369L5.14594 5.28385V6.8066C5.14594 7.04718 5.26259 7.26222 5.44638 7.39464L5.44707 9.07526V10.3888C5.44707 10.8731 5.80219 11.2758 6.26572 11.3504C6.38364 12.5712 7.01762 13.6362 7.94096 14.3334V14.8134L4.74946 16.898L3.28339 17.3283C1.71459 17.7888 0.606879 19.2291 0.606879 20.9033V21.9947C0.606879 22.1969 0.770795 22.3609 0.97309 22.3609C1.17538 22.3609 1.3393 22.197 1.3393 21.9947V20.9033C1.3393 19.5838 2.22353 18.4026 3.48969 18.0311L4.85571 17.6301L10.313 20.8729C10.4238 20.9387 10.5704 20.9422 10.6872 20.8729L16.1448 17.6299L17.5107 18.0309C18.7767 18.4026 19.6609 19.5836 19.6609 20.903V24.4401C19.6609 24.8937 19.2918 25.2628 18.8381 25.2628H17.224V23.6843C17.224 23.482 17.0601 23.3181 16.8578 23.3181C16.6556 23.3181 16.4916 23.482 16.4916 23.6843V25.2628H4.50683V23.6843C4.50683 23.482 4.34291 23.3181 4.14062 23.3181C3.93832 23.3181 3.77441 23.482 3.77441 23.6843V25.2628H2.16196C1.70829 25.2628 1.3392 24.8937 1.3392 24.4401V23.7066C1.3392 23.5043 1.17529 23.3403 0.972992 23.3403C0.770697 23.3403 0.606781 23.5043 0.606781 23.7066V24.44C0.606781 25.2975 1.30439 25.9951 2.16191 25.9951H18.838C19.6956 25.9951 20.3932 25.2975 20.3932 24.44V20.903C20.3932 19.2682 19.3232 17.7997 17.7169 17.3281V17.3281ZM3.78749 11.5894H2.12988C2.07866 11.5894 2.03959 11.5437 2.04828 11.4928L2.49116 8.89342H3.42621L3.86909 11.4928C3.87773 11.5435 3.83896 11.5894 3.78749 11.5894V11.5894ZM3.36909 7.50768V8.16105H2.54824V7.50768C2.54824 7.49327 2.55991 7.4816 2.57431 7.4816H3.34296C3.35742 7.48156 3.36909 7.49327 3.36909 7.50768V7.50768ZM9.19028 19.2164L9.33603 19.4404L5.59731 17.2189L7.97041 15.6688C8.07802 16.9315 8.49423 18.1466 9.19028 19.2164ZM9.18774 17.6356C10.0497 17.758 10.9498 17.7581 11.8123 17.6356C11.6456 18.0456 11.4402 18.4413 11.1958 18.817L10.5 19.8865L9.80415 18.817C9.55976 18.4413 9.35439 18.0456 9.18774 17.6356V17.6356ZM11.8097 19.2164C12.5058 18.1466 12.922 16.9315 13.0295 15.6688L15.4026 17.2188L11.664 19.4404L11.8097 19.2164ZM13.9519 7.53219H14.8198V8.70885H14.389C14.1479 8.70885 13.9518 8.51276 13.9518 8.27169V7.53219H13.9519ZM3.05776 4.09225L10.4846 1.72994C10.4941 1.72692 10.5043 1.72687 10.514 1.72999L17.9408 4.09225C17.9561 4.09713 17.9771 4.10377 17.9745 4.14191C17.9718 4.17999 17.95 4.18365 17.9341 4.18639L15.4787 4.6046L14.5568 4.49059C14.3562 4.46573 14.1733 4.60841 14.1484 4.80909C14.1236 5.00983 14.2663 5.19264 14.4669 5.21744L15.1217 5.29845V6.79982L5.87832 6.79948V5.2984L9.66772 4.8295C10.2197 4.76129 10.7792 4.76129 11.3308 4.8295L12.765 5.0069C12.9657 5.03175 13.1486 4.88912 13.1734 4.68844C13.1983 4.48771 13.0557 4.3049 12.855 4.28004L11.4207 4.10265C10.8096 4.02701 10.1894 4.02701 9.57783 4.10265L5.5205 4.6047L3.0643 4.18639C3.04838 4.18365 3.02665 4.17999 3.02397 4.14191C3.02133 4.10377 3.04238 4.09708 3.05776 4.09225V4.09225ZM6.17924 8.70885L6.17875 7.53219H7.04814V8.27174C7.04814 8.51276 6.85205 8.7089 6.61093 8.7089H6.17924V8.70885ZM6.98525 11.1622C6.9664 10.864 6.71855 10.6304 6.42104 10.6304C6.28779 10.6304 6.17939 10.522 6.17939 10.3888V9.44127H6.61093C7.25581 9.44127 7.78051 8.91661 7.78051 8.27174V7.53219H13.2194V8.27174C13.2194 8.91661 13.7441 9.44127 14.389 9.44127H14.8206V10.3888C14.8206 10.522 14.7122 10.6304 14.5789 10.6304C14.2814 10.6304 14.0335 10.864 14.0147 11.1622C13.898 13.0113 12.3542 14.4598 10.4999 14.4598C8.6457 14.4598 7.1019 13.0113 6.98525 11.1622V11.1622ZM10.5 15.1922C11.1513 15.1922 11.7704 15.0432 12.3251 14.7784V15.0105C12.3251 15.6366 12.2406 16.2543 12.078 16.85C11.0828 17.0397 9.95761 17.0474 8.92202 16.85C8.75937 16.2543 8.6749 15.6367 8.6749 15.0105C8.6749 15.0027 8.67382 14.9952 8.67334 14.9875C8.67324 14.986 8.67338 14.9845 8.67329 14.983V14.7777C9.22841 15.0429 9.84804 15.1922 10.5 15.1922V15.1922Z" fill="#132C33"/>
</svg>
