<svg width="21" height="23" viewBox="0 0 21 23" fill="none" xmlns="http://www.w3.org/2000/svg">
<path d="M13.2917 22.7459C13.05 22.7459 12.8385 22.6552 12.6573 22.474C12.476 22.2927 12.3854 22.0813 12.3854 21.8396C12.3854 21.5778 12.476 21.3613 12.6573 21.1901C12.8385 21.0189 13.05 20.9334 13.2917 20.9334C14.4799 20.9334 15.4818 20.6917 16.2974 20.2083C17.113 19.725 17.5208 19.1611 17.5208 18.5167C17.5208 18.0535 17.2238 17.6004 16.6297 17.1573C16.0356 16.7143 15.2351 16.3719 14.2281 16.1302L15.6479 14.7104C16.9167 15.0931 17.8481 15.6217 18.4422 16.2964C19.0363 16.971 19.3333 17.7111 19.3333 18.5167C19.3333 19.866 18.7191 20.9082 17.4906 21.6432C16.2622 22.3783 14.8625 22.7459 13.2917 22.7459ZM3.625 13.8646C2.33611 13.5827 1.40972 13.1396 0.845833 12.5354C0.281945 11.9313 0 11.307 0 10.6625C0 9.95766 0.261806 9.32328 0.785417 8.75939C1.30903 8.1955 2.51736 7.5712 4.41042 6.88647C5.73958 6.40314 6.59549 6.01043 6.97812 5.70835C7.36076 5.40627 7.55208 5.05384 7.55208 4.65106C7.55208 4.14759 7.33056 3.7146 6.8875 3.3521C6.44444 2.9896 5.75972 2.80835 4.83333 2.80835C4.28958 2.80835 3.82639 2.87884 3.44375 3.01981C3.06111 3.16078 2.71875 3.38231 2.41667 3.68439C2.25556 3.8455 2.04913 3.94116 1.7974 3.97137C1.54566 4.00158 1.3191 3.93613 1.11771 3.77502C0.896181 3.61391 0.780382 3.41252 0.770313 3.17085C0.760243 2.92918 0.835764 2.71772 0.996875 2.53647C1.33924 2.09342 1.85278 1.72588 2.5375 1.43387C3.22222 1.14186 3.9875 0.99585 4.83333 0.99585C6.20278 0.99585 7.30035 1.32311 8.12604 1.97762C8.95174 2.63213 9.36458 3.52328 9.36458 4.65106C9.36458 5.47675 9.0776 6.17658 8.50365 6.75054C7.92969 7.3245 6.80694 7.92363 5.13542 8.54793C3.78611 9.05141 2.89497 9.44915 2.46198 9.74116C2.02899 10.0332 1.8125 10.3403 1.8125 10.6625C1.8125 10.9847 2.08438 11.2919 2.62813 11.5839C3.17188 11.8759 3.9875 12.1528 5.075 12.4146L3.625 13.8646ZM18.6083 9.21252L14.7417 5.34585L16.101 3.98647C16.4635 3.62397 16.8663 3.44272 17.3094 3.44272C17.7524 3.44272 18.1552 3.62397 18.5177 3.98647L19.9677 5.43647C20.3302 5.79898 20.5115 6.20175 20.5115 6.64481C20.5115 7.08786 20.3302 7.49064 19.9677 7.85314L18.6083 9.21252ZM3.02083 20.9334H4.28958L14.7115 10.5115L13.4427 9.24272L3.02083 19.6646V20.9334ZM1.20833 22.7459V18.8792L13.4427 6.64481L17.3094 10.5115L5.075 22.7459H1.20833Z" fill="#132C33"/>
</svg>
