<svg width="24" height="20" viewBox="0 0 24 20" fill="none" xmlns="http://www.w3.org/2000/svg">
<path d="M1.75 19.6625C1.28333 19.6625 0.875 19.4875 0.525 19.1375C0.175 18.7875 0 18.3792 0 17.9125V2.74585C0 2.27918 0.175 1.87085 0.525 1.52085C0.875 1.17085 1.28333 0.99585 1.75 0.99585H21.5833C22.05 0.99585 22.4583 1.17085 22.8083 1.52085C23.1583 1.87085 23.3333 2.27918 23.3333 2.74585V17.9125C23.3333 18.3792 23.1583 18.7875 22.8083 19.1375C22.4583 19.4875 22.05 19.6625 21.5833 19.6625H1.75ZM1.75 17.9125H21.5833V5.19585H1.75V17.9125ZM6.41667 15.8125L5.19167 14.5875L8.19583 11.5542L5.1625 8.52085L6.41667 7.29585L10.675 11.5542L6.41667 15.8125ZM11.9583 15.9292V14.1792H18.375V15.9292H11.9583Z" fill="#132C33"/>
</svg>
