<svg width="30" height="31" viewBox="0 0 30 31" fill="none" xmlns="http://www.w3.org/2000/svg">
<path d="M25.6055 0.993164L4.39453 0.993164C1.97159 0.993164 0 2.96475 0 5.3877L0 26.5986C0 29.0216 1.97159 30.9932 4.39453 30.9932L13.2422 30.9932L13.2422 20.3877L9.72656 20.3877L9.72656 15.1143H13.2422V11.54C13.2422 8.6321 15.6077 6.2666 18.5156 6.2666L23.8477 6.2666V11.54H18.5156L18.5156 15.1143H23.8477L22.9687 20.3877H18.5156V30.9932H25.6055C28.0284 30.9932 30 29.0216 30 26.5986L30 5.3877C30 2.96475 28.0284 0.993164 25.6055 0.993164Z" fill="#132C33"/>
</svg>
