<svg width="19" height="21" viewBox="0 0 19 21" fill="none" xmlns="http://www.w3.org/2000/svg">
<path d="M-4.37114e-07 10.9967C-1.95608e-07 16.5217 4.36167 20.9967 9.74107 20.9967C14.0457 20.9967 17.6962 18.1317 18.9832 14.1592C19.0749 13.6592 18.7734 13.4759 18.5148 13.4759C18.2835 13.4759 17.6706 13.4842 16.8585 13.4884C17.4459 16.27 15.5517 16.8567 15.5517 16.8567C14.4274 17.3117 14.1267 17.9692 14.1267 17.9692C13.5228 18.875 13.5352 17.8992 13.5352 17.8992C13.603 16.895 14.5389 16.3675 14.5389 16.3675C16.0283 15.4759 15.5979 14.0267 15.3493 13.455C14.719 13.365 14.2903 13.1075 14.0466 12.8217C13.8029 15.0425 12.9652 17.3767 9.23304 17.3767C8.16988 17.3767 7.30085 16.9892 6.61933 16.3475C6.37316 16.46 5.3827 16.7975 4.04116 16.26C4.04116 16.26 3.78012 15.4225 5.03988 13.51C4.82345 12.71 4.71606 11.86 4.7111 11.01C4.71606 10.16 4.82345 9.31004 5.03988 8.51004C3.78012 6.61004 4.04116 5.77254 4.04116 5.77254C5.3827 5.23504 6.37316 5.57254 6.61933 5.67254C7.30085 5.03504 8.16988 4.64754 9.23304 4.64754C12.9752 4.64754 13.7987 6.98504 14.0383 9.21004C14.3307 8.86004 14.928 8.53504 15.8408 8.53504C17.1444 8.53504 18.1918 8.54754 18.5082 8.54754C18.7635 8.54754 19.0683 8.37254 18.9708 7.86004C17.692 3.8592 14.0391 0.996703 9.74107 0.996704C4.36167 0.996704 -6.7851e-07 5.47421 -4.37114e-07 10.9967Z" fill="#132C33"/>
</svg>
