<svg width="46" height="66" viewBox="0 0 46 66" fill="none" xmlns="http://www.w3.org/2000/svg">
<path d="M4.16571 60.7751L0 13.7698H45.7746L41.6044 60.7677L22.8592 65.9958L4.16571 60.7751Z" fill="#E53D20"/>
<path d="M22.8873 61.9998L38.0343 57.7752L41.598 17.6133H22.8873V61.9998Z" fill="#F15123"/>
<path d="M22.8873 35.0469H15.3044L14.7806 29.1434H22.8873V23.3784H22.8675H8.51785L8.65507 24.925L10.0635 40.8118H22.8873V35.0469Z" fill="#EDEDED"/>
<path d="M22.8873 50.019L22.8622 50.0258L16.4802 48.2921L16.072 43.6943H12.9709H10.3195L11.1224 52.7462L22.8609 56.0244L22.8873 56.0171V50.019Z" fill="#EDEDED"/>
<path d="M4.25882 0.995891H7.17105V3.89041H9.83493V0.995891H12.7473V9.76123H9.83505V6.82614H7.17118V9.76123H4.25903V0.995891H4.25882Z" fill="#100F0D"/>
<path d="M16.5769 3.90263H14.0131V0.995891H22.0541V3.90263H19.4892V9.76123H16.5771V3.90263H16.5769Z" fill="#100F0D"/>
<path d="M23.3303 0.995891H26.3669L28.2348 4.07575L30.1008 0.995891H33.1386V9.76123H30.2384V5.41664L28.2348 8.53324H28.1848L26.1798 5.41664V9.76123H23.3303V0.995891Z" fill="#100F0D"/>
<path d="M34.588 0.995891H37.501V6.86395H41.5963V9.76123H34.588V0.995891Z" fill="#100F0D"/>
<path d="M22.8675 35.0469V40.8118H29.9239L29.2588 48.2886L22.8675 50.024V56.0217L34.6153 52.7463L34.7014 51.7723L36.0481 36.5949L36.1879 35.0469H34.6437H22.8675Z" fill="#AEAEAE"/>
<path d="M22.8675 23.3785V29.1436H36.691H36.7093L36.8243 27.8477L37.0854 24.9251L37.2224 23.3785H22.8675Z" fill="#AEAEAE"/>
</svg>
