<svg width="65" height="66" viewBox="0 0 65 66" fill="none" xmlns="http://www.w3.org/2000/svg">
<path d="M0 0.99585H65V65.9958H0V0.99585Z" fill="#F7DF1E"/>
<path d="M17.0909 55.3146L22.0651 52.3043C23.0247 54.0057 23.8977 55.4453 25.9916 55.4453C27.9988 55.4453 29.2642 54.6602 29.2642 51.6062V30.8372H35.3726V51.6926C35.3726 58.0192 31.6641 60.8989 26.2535 60.8989C21.367 60.8989 18.5306 58.3682 17.0908 55.3141" fill="black"/>
<path d="M38.6905 54.6599L43.6641 51.7802C44.9734 53.9184 46.6751 55.4891 49.6855 55.4891C52.2165 55.4891 53.8304 54.2236 53.8304 52.4783C53.8304 50.384 52.1725 49.6422 49.38 48.4209L47.8533 47.7659C43.4462 45.8901 40.5228 43.534 40.5228 38.5599C40.5228 33.9785 44.0133 30.4878 49.4675 30.4878C53.3508 30.4878 56.1432 31.8405 58.1501 35.3748L53.3941 38.4288C52.3469 36.5528 51.2128 35.8112 49.4676 35.8112C47.6787 35.8112 46.5441 36.9456 46.5441 38.4288C46.5441 40.2614 47.6787 41.0033 50.2963 42.1379L51.8233 42.7923C57.0155 45.0177 59.939 47.2863 59.939 52.391C59.939 57.889 55.6195 60.8993 49.8165 60.8993C44.1444 60.8993 40.4792 58.1943 38.6906 54.6599" fill="black"/>
</svg>
