<svg width="22" height="25" viewBox="0 0 22 25" fill="none" xmlns="http://www.w3.org/2000/svg">
<path d="M18.2645 19.1408L17.6145 19.5744L19.1449 21.8701H1.85469L3.67773 19.1357H13.6023V18.3545H3.46875C3.40446 18.3545 3.34115 18.3703 3.28446 18.4007C3.22777 18.431 3.17943 18.4748 3.14375 18.5283L0.8 22.0439C0.75732 22.1082 0.734497 22.1836 0.734375 22.2607V23.4326C0.734375 23.6398 0.816685 23.8385 0.963198 23.985C1.10971 24.1316 1.30842 24.2139 1.51562 24.2139H19.4844C19.6916 24.2139 19.8903 24.1316 20.0368 23.985C20.1833 23.8385 20.2656 23.6398 20.2656 23.4326V22.2607C20.2655 22.1836 20.2427 22.1082 20.2 22.0439L18.2645 19.1408ZM1.51562 23.4326V22.6514H19.4844V23.4326H1.51562Z" fill="#132C33"/>
<path d="M18.3125 0.776367H2.6875C2.37698 0.777295 2.07945 0.901057 1.85988 1.12063C1.64032 1.34019 1.51655 1.63773 1.51562 1.94824V12.1045C1.51655 12.415 1.64032 12.7125 1.85988 12.9321C2.07945 13.1517 2.37698 13.2754 2.6875 13.2764H8.15625V14.8389H6.59375C6.49015 14.8389 6.39079 14.88 6.31754 14.9533C6.24428 15.0265 6.20312 15.1259 6.20312 15.2295V16.792C6.20312 16.8956 6.24428 16.9949 6.31754 17.0682C6.39079 17.1415 6.49015 17.1826 6.59375 17.1826H14.4062C14.5099 17.1826 14.6092 17.1415 14.6825 17.0682C14.7557 16.9949 14.7969 16.8956 14.7969 16.792V15.2295C14.7969 15.1259 14.7557 15.0265 14.6825 14.9533C14.6092 14.88 14.5099 14.8389 14.4062 14.8389H12.8438V13.2764H18.3125C18.623 13.2754 18.9205 13.1517 19.1401 12.9321C19.3597 12.7125 19.4834 12.415 19.4844 12.1045V1.94824C19.4834 1.63773 19.3597 1.34019 19.1401 1.12063C18.9205 0.901057 18.623 0.777295 18.3125 0.776367V0.776367ZM14.0156 15.6201V16.4014H6.98438V15.6201H14.0156ZM8.9375 14.8389V13.2764H12.0625V14.8389H8.9375ZM18.7031 12.1045C18.7031 12.2081 18.662 12.3074 18.5887 12.3807C18.5155 12.454 18.4161 12.4951 18.3125 12.4951H2.6875C2.5839 12.4951 2.48454 12.454 2.41129 12.3807C2.33803 12.3074 2.29688 12.2081 2.29688 12.1045V10.9326H18.7031V12.1045ZM18.7031 10.1514H2.29688V1.94824C2.29688 1.84464 2.33803 1.74529 2.41129 1.67203C2.48454 1.59877 2.5839 1.55762 2.6875 1.55762H18.3125C18.4161 1.55762 18.5155 1.59877 18.5887 1.67203C18.662 1.74529 18.7031 1.84464 18.7031 1.94824V10.1514Z" fill="#132C33"/>
<path d="M16.3594 11.3232H17.1406V12.1045H16.3594V11.3232Z" fill="#132C33"/>
<path d="M6.98438 9.37012H8.54688C8.65048 9.37012 8.74983 9.32896 8.82309 9.25571C8.89635 9.18245 8.9375 9.08309 8.9375 8.97949V8.58887H12.0625V8.97949C12.0625 9.08309 12.1037 9.18245 12.1769 9.25571C12.2502 9.32896 12.3495 9.37012 12.4531 9.37012H14.0156C14.1192 9.37012 14.2186 9.32896 14.2918 9.25571C14.3651 9.18245 14.4062 9.08309 14.4062 8.97949V7.41699C14.4062 7.31339 14.3651 7.21403 14.2918 7.14078C14.2186 7.06752 14.1192 7.02637 14.0156 7.02637H13.625V4.68262H14.0156C14.1192 4.68262 14.2186 4.64146 14.2918 4.56821C14.3651 4.49495 14.4062 4.39559 14.4062 4.29199V2.72949C14.4062 2.62589 14.3651 2.52654 14.2918 2.45328C14.2186 2.38002 14.1192 2.33887 14.0156 2.33887H12.4531C12.3495 2.33887 12.2502 2.38002 12.1769 2.45328C12.1037 2.52654 12.0625 2.62589 12.0625 2.72949V3.12012H8.9375V2.72949C8.9375 2.62589 8.89635 2.52654 8.82309 2.45328C8.74983 2.38002 8.65048 2.33887 8.54688 2.33887H6.98438C6.88077 2.33887 6.78142 2.38002 6.70816 2.45328C6.6349 2.52654 6.59375 2.62589 6.59375 2.72949V4.29199C6.59375 4.39559 6.6349 4.49495 6.70816 4.56821C6.78142 4.64146 6.88077 4.68262 6.98438 4.68262H7.375V7.02637H6.98438C6.88077 7.02637 6.78142 7.06752 6.70816 7.14078C6.6349 7.21403 6.59375 7.31339 6.59375 7.41699V8.97949C6.59375 9.08309 6.6349 9.18245 6.70816 9.25571C6.78142 9.32896 6.88077 9.37012 6.98438 9.37012ZM13.625 8.58887H12.8438V7.80762H13.625V8.58887ZM12.8438 3.12012H13.625V3.90137H12.8438V3.12012ZM7.375 3.12012H8.15625V3.90137H7.375V3.12012ZM8.15625 4.68262H8.54688C8.65048 4.68262 8.74983 4.64146 8.82309 4.56821C8.89635 4.49495 8.9375 4.39559 8.9375 4.29199V3.90137H12.0625V4.29199C12.0625 4.39559 12.1037 4.49495 12.1769 4.56821C12.2502 4.64146 12.3495 4.68262 12.4531 4.68262H12.8438V7.02637H12.4531C12.3495 7.02637 12.2502 7.06752 12.1769 7.14078C12.1037 7.21403 12.0625 7.31339 12.0625 7.41699V7.80762H8.9375V7.41699C8.9375 7.31339 8.89635 7.21403 8.82309 7.14078C8.74983 7.06752 8.65048 7.02637 8.54688 7.02637H8.15625V4.68262ZM7.375 7.80762H8.15625V8.58887H7.375V7.80762Z" fill="#132C33"/>
<path d="M6.98438 20.3076H12.4531V21.0889H6.98438V20.3076Z" fill="#132C33"/>
<path d="M21.3867 14.3858L20.2813 13.2803C20.2449 13.2439 20.2016 13.2152 20.154 13.1957C20.1064 13.1763 20.0553 13.1665 20.0039 13.167C19.9531 13.1665 19.9026 13.1763 19.8556 13.1958C19.8086 13.2152 19.7661 13.244 19.7305 13.2803L14.4805 18.5303C14.4377 18.573 14.4055 18.6252 14.3867 18.6826L14.1094 19.5108C14.0871 19.5794 14.084 19.6528 14.1005 19.7231C14.1171 19.7933 14.1526 19.8577 14.2031 19.9092L13.6523 20.4639L14.2031 21.0147L14.7578 20.4639C14.7936 20.4999 14.8363 20.5285 14.8832 20.5479C14.9301 20.5673 14.9804 20.5773 15.0312 20.5772C15.0736 20.5767 15.1157 20.5701 15.1562 20.5576L15.9844 20.2803C16.0418 20.2615 16.094 20.2293 16.1367 20.1865L21.3867 14.9365C21.4595 14.8634 21.5003 14.7643 21.5003 14.6612C21.5003 14.558 21.4595 14.4589 21.3867 14.3858V14.3858ZM15.6523 19.5694L15.1406 19.7373L14.9258 19.5264L15.0977 19.0147L18.8984 15.2139L19.4531 15.7647L15.6523 19.5694ZM20.0039 15.2139L19.4531 14.6631L20.0039 14.1084L20.5586 14.6631L20.0039 15.2139Z" fill="#132C33"/>
</svg>
